<svg id="Grupo_133" data-name="Grupo 133" xmlns="http://www.w3.org/2000/svg" width="88.62" height="94.137" viewBox="0 0 88.62 94.137">
  <g id="syringe" transform="translate(67.697 67.697) rotate(180)">
    <path id="Caminho_8" data-name="Caminho 8" d="M11.8,20.255a1.983,1.983,0,0,0,2.805-2.8l-1.4-1.4,7.633-7.633L12.422,0,4.789,7.633l-1.4-1.4a1.983,1.983,0,0,0-2.805,2.8Z" transform="translate(0 46.862)" fill="rgba(113,122,220,0.66)"/>
    <path id="Caminho_9" data-name="Caminho 9" d="M26.646,10.355l4.207,4.207a2.077,2.077,0,0,0,.67-1.4V9.533L21.858,0H18.231a1.981,1.981,0,0,0-1.4.581L0,17.367,14.024,31.392l2.805-2.805-4.207-4.207a1.983,1.983,0,0,1,2.8-2.8l4.207,4.207,2.8-2.8-4.207-4.207a1.983,1.983,0,1,1,2.805-2.8l4.207,4.207,2.805-2.805L23.842,13.16a1.983,1.983,0,0,1,2.8-2.8Z" transform="translate(20.836 15.47)" fill="rgba(113,122,220,0.66)"/>
    <path id="Caminho_10" data-name="Caminho 10" d="M21.036.581a1.982,1.982,0,0,0-2.805,0L8.156,10.657A5.941,5.941,0,0,0,1.4,11.8L0,13.2l8.415,8.414,1.4-1.4a5.94,5.94,0,0,0,1.144-6.754L21.036,3.386a1.982,1.982,0,0,0,0-2.8Z" transform="translate(46.079 0)" fill="rgba(113,122,220,0.66)"/>
    <path id="Caminho_11" data-name="Caminho 11" d="M21.618,14.024,7.594,0l-1.4,1.4a1.985,1.985,0,0,1-2.8,0,1.983,1.983,0,0,0-2.8,2.8L17.41,21.036a1.983,1.983,0,1,0,2.805-2.8,1.985,1.985,0,0,1,0-2.805Z" transform="translate(10.438 35.642)" fill="rgba(113,122,220,0.66)"/>
  </g>
  <g id="syringe-2" data-name="syringe" transform="translate(88.62 94.137) rotate(180)">
    <path id="Caminho_8-2" data-name="Caminho 8" d="M9.046.582A1.986,1.986,0,0,0,6.238,3.39l1.4,1.4L0,12.436,8.424,20.86l7.642-7.642,1.4,1.4a1.986,1.986,0,1,0,2.808-2.808Z" transform="translate(46.915 0)" fill="rgba(113,122,220,0.66)"/>
    <path id="Caminho_9-2" data-name="Caminho 9" d="M4.883,21.061.671,16.849A2.079,2.079,0,0,0,0,18.253v3.631l9.676,9.544h3.631a1.983,1.983,0,0,0,1.4-.582L31.559,14.04,17.519,0,14.711,2.808,18.923,7.02a1.986,1.986,0,1,1-2.808,2.808L11.9,5.616,9.095,8.424l4.212,4.212A1.986,1.986,0,0,1,10.5,15.444L6.287,11.232,3.479,14.041l4.212,4.212a1.985,1.985,0,0,1-2.808,2.808Z" transform="translate(15.355 20.86)" fill="rgba(113,122,220,0.66)"/>
    <path id="Caminho_10-2" data-name="Caminho 10" d="M.582,21.06a1.985,1.985,0,0,0,2.808,0L13.477,10.974a5.947,5.947,0,0,0,6.761-1.146l1.4-1.4L13.218,0l-1.4,1.4a5.947,5.947,0,0,0-1.145,6.761L.582,18.252a1.985,1.985,0,0,0,0,2.808Z" transform="translate(0 46.132)" fill="rgba(113,122,220,0.66)"/>
    <path id="Caminho_11-2" data-name="Caminho 11" d="M0,7.6l14.04,14.04,1.4-1.4a1.987,1.987,0,0,1,2.808,0A1.986,1.986,0,1,0,21.06,17.43L4.212.582A1.986,1.986,0,1,0,1.4,3.39,1.987,1.987,0,0,1,1.4,6.2Z" transform="translate(35.683 10.45)" fill="rgba(113,122,220,0.66)"/>
  </g>
</svg>
